<?xml version="1.0" encoding="UTF-8"?>
<svg width="195px" height="58px" viewBox="0 0 195 58" version="1.1" xmlns="http://www.w3.org/2000/svg" xmlns:xlink="http://www.w3.org/1999/xlink">
    <title>Group 3 Copy 4</title>
    <g id="UI-2" stroke="none" stroke-width="1" fill="none" fill-rule="evenodd">
        <g id="HP--Copy-14" transform="translate(-235.000000, -2939.000000)" fill="#192945" stroke="#192945">
            <g id="Group-3-Copy-4" transform="translate(236.000000, 2940.000000)">
                <path d="M108.182526,0.651652539 C92.6547931,0.107249078 77.0455586,-0.0765527335 61.5839502,1.47817719 C47.4593486,2.89855675 33.4304306,5.8093356 20.5421973,11.0284318 C17.3839565,12.3073131 14.3012373,13.7234623 11.3206945,15.2832979 C8.67948666,16.6657501 6.00085967,18.1132623 3.80116305,19.9944592 C1.82632279,21.6833936 0.349720478,23.7619587 0.0582273582,26.1706377 C-0.201143425,28.3149922 0.420287101,30.4370279 1.63734777,32.3112228 C4.78277382,37.1554217 10.8554333,40.2778644 16.3926065,42.8378152 C22.6771367,45.7430508 29.3871169,47.9267913 36.2170433,49.6952273 C49.5515721,53.1482215 63.3882687,55.2082606 77.2912603,55.9493028 C91.1795577,56.6894698 105.166102,56.0988241 118.902843,54.2037691 C132.637021,52.3092976 146.127549,49.112313 159.016295,44.6368848 C165.560879,42.3644526 172.020886,39.8109202 178.124301,36.7644782 C181.183441,35.2376102 184.149118,33.568223 186.944958,31.7075943 C189.289034,30.1474671 191.937589,28.3586086 192.735009,25.7906348 C194.263554,20.8672261 188.870248,17.3080353 184.480764,15.1816234 C178.639454,12.3523883 172.125796,10.7104255 165.539179,9.72475181 C158.730611,8.70581875 151.814057,8.35951279 144.918348,8.09358366 C136.961406,7.78651794 128.996091,7.63510026 121.031119,7.63918474 C117.207706,7.64137286 113.384636,7.68046721 109.562419,7.75296682 C109.428804,7.75544668 109.445378,8.47898397 109.583094,8.47650411 C124.411824,8.19482054 139.338288,8.29503629 154.132845,9.27268687 C160.656926,9.70389176 167.197068,10.4331182 173.492362,12.0028731 C176.538517,12.7625873 179.520085,13.7218577 182.361203,14.9320322 C185.190531,16.1372469 188.067702,17.5455189 190.238181,19.543853 C191.301977,20.5231082 192.233012,21.6804761 192.623264,22.9895535 C193.131071,24.6927836 192.319298,26.3346006 191.10463,27.663371 C189.128251,29.825668 186.270218,31.4833853 183.655152,33.0308215 C177.925245,36.4212356 171.677621,39.1404813 165.336364,41.5894216 C153.119625,46.3072932 140.284017,49.8453322 127.157942,52.1759683 C114.027766,54.5071879 100.604217,55.6320259 87.1936541,55.5278715 C73.7873627,55.4240089 60.3908104,54.0905705 47.3289798,51.5042164 C34.0879134,48.8827066 20.6623143,45.1766203 9.42154681,38.4745644 C4.5526207,35.5715169 -1.56770965,30.4504483 0.665134488,24.8424508 C1.64025245,22.3935105 3.88061458,20.485035 6.22810812,18.938474 C8.87341673,17.1957119 11.7862976,15.7171285 14.7005453,14.3291331 C26.5145599,8.70144251 39.6102215,5.23138101 52.9040847,3.27345409 C67.546061,1.11684617 82.4650069,0.782939547 97.2901488,1.06885348 C100.929029,1.13901909 104.566712,1.24754968 108.203371,1.37504395 C108.32195,1.37912844 108.334594,0.656904019 108.182526,0.651652539" id="Fill-1"></path>
            </g>
        </g>
    </g>
</svg>